<svg width="44" height="44" viewBox="0 0 44 44" fill="none" xmlns="http://www.w3.org/2000/svg">
<g clip-path="url(#clip0_121_154)">
<path d="M36.4121 26.4645L28.6645 30.9771C28.276 31.2033 27.8811 31.3631 27.4688 31.4584C27.6215 31.2134 27.7412 30.9363 27.8234 30.6295C28.2194 29.1513 27.3409 27.6079 25.8232 27.1159C25.7937 27.1064 25.7637 27.0988 25.7332 27.0933C23.5065 26.6918 21.3087 25.8972 19.5428 25.2588C18.9293 25.0369 18.3499 24.8274 17.8572 24.6678C15.8739 24.0243 14.0806 24.8209 12.5881 25.6849L6.82397 29.0222L6.2805 28.0619C6.04065 27.638 5.64886 27.3327 5.17741 27.202C4.70613 27.0713 4.21293 27.1314 3.789 27.3714L1.61521 28.6017C1.1912 28.8417 0.885775 29.2334 0.755064 29.7048C0.624353 30.1763 0.684595 30.6694 0.924533 31.0932L7.31545 42.3856C7.5553 42.8094 7.94709 43.1148 8.41854 43.2456C8.58156 43.2908 8.74717 43.3131 8.91165 43.3131C9.22274 43.3131 9.52963 43.2331 9.80695 43.0762L11.9808 41.8459C12.4048 41.606 12.7101 41.2142 12.8408 40.7428C12.9715 40.2713 12.9113 39.7782 12.6713 39.3544L12.0124 38.1901L13.3264 37.4315L23.2496 40.0904C23.81 40.2407 24.3602 40.3156 24.8985 40.3156C25.9717 40.3156 26.9976 40.0175 27.9631 39.4231L42.0234 30.7654C43.305 29.9763 43.7117 27.9874 42.8764 26.5928C42.4708 25.9158 40.8065 23.9053 36.4121 26.4645ZM11.5158 40.3755C11.4832 40.493 11.4079 40.5903 11.3035 40.6492L9.12967 41.8795C8.91612 42.0006 8.63321 41.9223 8.51195 41.7083L2.12113 30.416C2.06209 30.3118 2.04765 30.1897 2.08013 30.0721C2.1127 29.9546 2.18807 29.8574 2.2924 29.7984L4.46619 28.5681C4.53408 28.5297 4.60953 28.5102 4.68636 28.5102C4.72752 28.5102 4.76912 28.5158 4.81011 28.5272C4.92759 28.5598 5.02487 28.6351 5.08391 28.7394L11.4748 40.0317C11.5338 40.1359 11.5484 40.258 11.5158 40.3755ZM41.3024 29.5946L27.2422 38.2522C26.1273 38.9387 24.9037 39.1103 23.6056 38.7623L13.4073 36.0296C13.2314 35.9826 13.0436 36.0072 12.8857 36.0983L11.3353 36.9934L7.50124 30.219L13.2771 26.8749C14.5691 26.1267 15.967 25.5001 17.433 25.9756C17.9039 26.1284 18.4468 26.3246 19.0752 26.5519C20.877 27.2033 23.1162 28.0128 25.4395 28.4375C26.2491 28.7204 26.7018 29.5025 26.4952 30.2736C26.2233 31.2882 25.3777 31.4142 24.7057 31.337C23.5644 31.1023 22.4799 30.7929 21.3325 30.4652C20.7884 30.3097 20.2257 30.1491 19.6474 29.9942C19.281 29.8961 18.9037 30.1136 18.8054 30.4803C18.7071 30.847 18.9248 31.224 19.2915 31.3223C19.859 31.4744 20.4161 31.6335 20.9548 31.7873C22.1374 32.1251 23.2544 32.4441 24.4573 32.6899C24.4619 32.6909 24.4664 32.6912 24.4711 32.692C24.4757 32.6928 24.48 32.6941 24.4846 32.6949L25.4481 32.8516C26.8887 33.0822 28.1675 32.8577 29.3564 32.1652L37.1041 27.6525C39.3342 26.3536 41.0512 26.2215 41.6967 27.2992C42.1415 28.0421 41.9426 29.2004 41.3024 29.5946ZM5.09688 30.749C5.15893 31.1731 4.86537 31.5672 4.44118 31.6293C4.01708 31.6913 3.62297 31.3977 3.56092 30.9736C3.49896 30.5495 3.79244 30.1554 4.21663 30.0933C4.64081 30.0313 5.03492 30.3249 5.09688 30.749ZM43.3132 5.3258V4.01706C43.3132 2.65504 42.205 1.54688 40.8431 1.54688H29.6387C28.2766 1.54688 27.1686 2.65504 27.1686 4.01706V5.3258C27.1686 6.02594 27.4619 6.65852 27.9314 7.10849C27.4619 7.55838 27.1686 8.19096 27.1686 8.89109V10.1998C27.1686 10.2978 27.1747 10.3956 27.1864 10.4927C23.589 11.3056 20.8943 14.5273 20.8943 18.3669C20.8943 22.818 24.5156 26.4393 28.9667 26.4393C31.9424 26.4393 34.5468 24.8206 35.9466 22.4179H40.8431C42.2051 22.4179 43.3132 21.3098 43.3132 19.9478V18.639C43.3132 17.9389 43.0199 17.3063 42.5503 16.8564C43.0199 16.4065 43.3132 15.7739 43.3132 15.0738V13.765C43.3132 13.0649 43.0199 12.4324 42.5503 11.9824C43.0199 11.5326 43.3132 10.9 43.3132 10.1998V8.89109C43.3132 8.19096 43.0199 7.55846 42.5503 7.10849C43.0199 6.65852 43.3132 6.02594 43.3132 5.3258ZM28.9667 25.0642C25.2737 25.0642 22.2693 22.0598 22.2693 18.3668C22.2693 14.6738 25.2737 11.6695 28.9667 11.6695C32.6597 11.6695 35.6641 14.6738 35.6641 18.3668C35.6641 22.0598 32.6596 25.0642 28.9667 25.0642ZM41.9382 18.639V19.9477C41.9382 20.5515 41.4469 21.0428 40.8431 21.0428H36.5825C36.8778 20.2049 37.039 19.3045 37.039 18.3668C37.039 18.0891 37.0249 17.8145 36.9973 17.5438H40.843C41.4469 17.5438 41.9382 18.0351 41.9382 18.639ZM41.9382 13.765V15.0737C41.9382 15.6775 41.4469 16.1688 40.8431 16.1688H36.7348C36.3552 14.829 35.6375 13.6299 34.6803 12.6699H40.8431C41.4469 12.6699 41.9382 13.1612 41.9382 13.765ZM41.9382 8.89101V10.1997C41.9382 10.8036 41.4469 11.2949 40.8431 11.2949H32.8555C31.7013 10.6576 30.3757 10.2944 28.9667 10.2944C28.827 10.2944 28.6879 10.298 28.5499 10.305C28.5466 10.2702 28.5436 10.2352 28.5436 10.1997V8.89101C28.5436 8.28721 29.0349 7.79591 29.6387 7.79591H40.8431C41.4469 7.79591 41.9382 8.28721 41.9382 8.89101ZM29.6387 6.42091C29.0349 6.42091 28.5436 5.9296 28.5436 5.32572V4.01706C28.5436 3.41318 29.0349 2.92188 29.6387 2.92188H40.8431C41.4469 2.92188 41.9382 3.41318 41.9382 4.01706V5.3258C41.9382 5.92969 41.4469 6.42099 40.8431 6.42099L29.6387 6.42091ZM32.0053 20.0126C32.0819 20.6433 31.9118 21.2199 31.5136 21.6803C31.0933 22.1661 30.4222 22.5036 29.6541 22.6294V23.0399C29.6541 23.4196 29.3463 23.7274 28.9666 23.7274C28.587 23.7274 28.2791 23.4196 28.2791 23.0399V22.6184C27.1055 22.3946 26.203 21.6128 25.9305 20.5196C25.8387 20.1511 26.0629 19.7781 26.4313 19.6862C26.8 19.5945 27.1728 19.8186 27.2646 20.1871C27.4775 21.0409 28.3578 21.3229 29.0466 21.3081C29.6488 21.2938 30.2089 21.0867 30.4735 20.7808C30.617 20.6149 30.6699 20.4235 30.6402 20.1783C30.5901 19.7661 30.3427 19.2617 28.8619 19.0187C26.7035 18.6642 26.1996 17.5421 26.157 16.6631C26.0979 15.4471 26.9409 14.4299 28.2545 14.1318C28.2627 14.13 28.2708 14.1282 28.279 14.1264V13.6936C28.279 13.314 28.5868 13.0061 28.9665 13.0061C29.3461 13.0061 29.654 13.314 29.654 13.6936V14.1203C30.5178 14.2987 31.3459 14.8364 31.7745 15.8572C31.9215 16.2073 31.7568 16.6103 31.4068 16.7572C31.0569 16.9042 30.6538 16.7397 30.5067 16.3895C30.1468 15.5325 29.2692 15.3117 28.5587 15.4727C28.0409 15.5902 27.4988 15.9471 27.5303 16.5963C27.5411 16.8197 27.57 17.413 29.0845 17.6617C30.8688 17.9547 31.8514 18.7455 32.0053 20.0126ZM14.4759 7.21884H15.8001V15.7216C15.8001 16.1012 16.1079 16.4091 16.4876 16.4091H19.2713C19.651 16.4091 19.9588 16.1012 19.9588 15.7216V7.21884H21.283C21.5359 7.21884 21.7684 7.07987 21.8884 6.85712C22.0083 6.63438 21.9961 6.36376 21.8568 6.15261L18.4533 0.996273C18.326 0.803516 18.1104 0.6875 17.8795 0.6875C17.6486 0.6875 17.433 0.803516 17.3057 0.996273L13.9022 6.15261C13.7629 6.36376 13.7507 6.63438 13.8706 6.85712C13.9905 7.07996 14.223 7.21884 14.4759 7.21884ZM17.8795 2.62298L20.0054 5.84384H19.2713C18.8917 5.84384 18.5838 6.15166 18.5838 6.53134V15.0341H17.1751V6.53134C17.1751 6.15166 16.8672 5.84384 16.4876 5.84384H15.7535L17.8795 2.62298Z" fill="#1657BB"/>
</g>
<defs>
<clipPath id="clip0_121_154">
<rect width="44" height="44" fill="white"/>
</clipPath>
</defs>
</svg>
