<svg width="44" height="44" viewBox="0 0 44 44" fill="none" xmlns="http://www.w3.org/2000/svg">
<g clip-path="url(#clip0_121_178)">
<path d="M42.9255 20.3813L40.0747 18.7359C38.5915 12.1676 33.5201 6.94416 27.0367 5.242V1.41683C27.0367 1.08451 26.7673 0.815186 26.435 0.815186H19.2171C18.8848 0.815186 18.6154 1.0846 18.6154 1.41683V5.06316C11.8571 6.5302 6.49741 11.7888 4.88454 18.4913C2.60642 18.5518 0.771484 20.4225 0.771484 22.715C0.771484 25.0075 2.60573 26.8774 4.88316 26.9386C6.51288 33.7215 11.9784 39.028 18.8484 40.424L17.7752 42.2823C17.6677 42.4685 17.6677 42.6979 17.7752 42.884C17.8827 43.0702 18.0814 43.1849 18.2963 43.1849H26.6664C26.8814 43.1849 27.08 43.0702 27.1875 42.884C27.295 42.6978 27.295 42.4684 27.1875 42.2823L26.1082 40.4134C33.0349 38.9839 38.5245 33.576 40.0759 26.6934L42.9254 25.0487C43.1117 24.9413 43.2265 24.7425 43.2265 24.5275V20.9026C43.2265 20.6876 43.1117 20.4889 42.9254 20.3814L42.9255 20.3813ZM19.8188 2.01848H25.8333V8.03308H19.8188V2.01848ZM1.97504 22.715C1.97504 21.0481 3.33113 19.6919 4.99806 19.6919C6.66499 19.6919 8.02117 21.0481 8.02117 22.715C8.02117 24.3819 6.66508 25.7381 4.99806 25.7381C3.33105 25.7381 1.97504 24.3819 1.97504 22.715ZM19.3388 41.9815L22.4814 36.5395L25.6239 41.9815H19.3387H19.3388ZM25.4716 39.3107L23.0026 35.0352C22.8951 34.8489 22.6965 34.7343 22.4815 34.7343C22.2666 34.7343 22.0679 34.8489 21.9605 35.0352L19.4857 39.3205C12.9355 38.1534 7.68301 33.1917 6.08809 26.7981C7.89192 26.3162 9.22473 24.6685 9.22473 22.7148C9.22473 20.7611 7.89252 19.1143 6.0893 18.6319C7.61443 12.5274 12.4751 7.72955 18.6155 6.29568V8.63464C18.6155 8.96696 18.885 9.23629 19.2173 9.23629H26.4352C26.7675 9.23629 27.0369 8.96687 27.0369 8.63464V6.48869C32.8646 8.13732 37.4187 12.848 38.8453 18.7645L36.0464 20.3813C35.8603 20.4889 35.7456 20.6875 35.7456 20.9024V24.5272C35.7456 24.7422 35.8603 24.9408 36.0464 25.0483L38.8465 26.6658C37.296 33.1057 32.0411 38.1179 25.4716 39.3106L25.4716 39.3107ZM42.0231 24.1798L39.4848 25.6448L36.9489 24.18V21.2498L39.4848 19.785L42.0231 21.2501V24.1798ZM32.3447 20.4036L30.7774 20.0458C30.6303 19.5859 30.4465 19.1422 30.2284 18.7201L31.0862 17.3582C31.5293 16.6502 31.4969 15.9028 31.0017 15.4077L29.7643 14.1702C29.2658 13.6718 28.5165 13.6398 27.8104 14.0862L26.4491 14.9418C26.0235 14.7225 25.5803 14.5386 25.1243 14.3924L24.7682 12.8244C24.582 12.0101 24.0296 11.5043 23.3267 11.5043H21.5752C20.8737 11.5043 20.3223 12.0101 20.1358 12.8254L19.78 14.3924C19.324 14.5386 18.8807 14.7225 18.4553 14.9418L17.0952 14.087C16.3854 13.6385 15.6357 13.6709 15.1401 14.1702L13.9026 15.4077C13.4047 15.9056 13.3728 16.6538 13.8189 17.3597L14.6761 18.7204C14.4556 19.1469 14.2711 19.5905 14.1248 20.0457L12.5599 20.403C11.7437 20.5853 11.2368 21.137 11.2368 21.8428V23.5943C11.2368 24.2958 11.7427 24.8473 12.5579 25.0337L14.1245 25.3894C14.2702 25.8439 14.4543 26.2879 14.6744 26.7162L13.8194 28.0767C13.3728 28.7834 13.4047 29.5316 13.9026 30.0295L15.1385 31.2653C15.6355 31.766 16.3854 31.7987 17.094 31.3508L18.4554 30.4952C18.8808 30.7145 19.3243 30.8984 19.7801 31.0446L20.1361 32.6126C20.3224 33.4269 20.8738 33.9328 21.5753 33.9328H23.3268C24.0298 33.9328 24.5821 33.4269 24.7686 32.6116L25.1244 31.0446C25.5802 30.8984 26.0236 30.7145 26.4491 30.4952L27.8092 31.3501C28.5167 31.7971 29.2658 31.7653 29.7644 31.2669L31.0018 30.0294C31.497 29.5342 31.5294 28.7868 31.0854 28.0774L30.2278 26.7158C30.4479 26.2877 30.6318 25.8438 30.7774 25.3894L32.345 25.0334C33.1609 24.8468 33.6678 24.2954 33.6678 23.5942V21.8427C33.6678 21.1373 33.1598 20.5855 32.3448 20.4034L32.3447 20.4036ZM32.4642 23.5943C32.4642 23.7668 32.1163 23.8512 32.0777 23.8602L30.1678 24.2938C29.9512 24.343 29.7793 24.5074 29.7206 24.7215C29.5574 25.3177 29.3175 25.8966 29.0079 26.4424C28.8986 26.6351 28.904 26.8724 29.0221 27.06L30.0661 28.7174C30.0877 28.7517 30.2727 29.0566 30.1507 29.1786L28.9134 30.416C28.7917 30.5374 28.5076 30.3681 28.4507 30.3321L26.7916 29.2895C26.6038 29.1715 26.3663 29.1664 26.1737 29.2761C25.6334 29.5839 25.0553 29.8236 24.4557 29.9886C24.2419 30.0474 24.0777 30.2192 24.0285 30.4355L23.5951 32.3445C23.5804 32.4088 23.4983 32.7295 23.3266 32.7295H21.5751C21.4021 32.7295 21.3181 32.3839 21.3093 32.3454L20.8756 30.4355C20.8265 30.2192 20.6623 30.0474 20.4484 29.9886C19.8487 29.8236 19.2707 29.584 18.7304 29.2761C18.638 29.2235 18.5353 29.1972 18.4326 29.1972C18.3213 29.1972 18.2101 29.2281 18.1124 29.2895L16.4523 30.3328C16.4181 30.3545 16.1143 30.5405 15.9909 30.416L14.7534 29.1786C14.6302 29.0554 14.8151 28.7536 14.8374 28.7184L15.88 27.0595C15.9978 26.872 16.0032 26.635 15.894 26.4424C15.5843 25.8964 15.3444 25.3173 15.1811 24.7215C15.1224 24.5074 14.9506 24.343 14.734 24.2938L12.8251 23.8604C12.7857 23.8514 12.4402 23.7674 12.4402 23.5944V21.8429C12.4402 21.6715 12.7584 21.5918 12.825 21.5769L14.7349 21.1409C14.9509 21.0915 15.1224 20.9275 15.1811 20.7138C15.3454 20.1165 15.5857 19.5386 15.8955 18.9965C16.0057 18.8035 16.0006 18.5654 15.8821 18.3773L14.8367 16.7176C14.8152 16.6835 14.6304 16.3819 14.7535 16.2588L15.9926 15.0196C16.1146 14.8966 16.4182 15.0828 16.4536 15.1052L18.1126 16.1478C18.3003 16.2659 18.5378 16.271 18.7305 16.1612C19.2707 15.8535 19.8487 15.6138 20.4485 15.4488C20.6623 15.3899 20.8265 15.2181 20.8757 15.0018L21.3091 13.0929C21.3181 13.0535 21.4022 12.7078 21.5752 12.7078H23.3267C23.4984 12.7078 23.5805 13.0285 23.5949 13.092L24.0286 15.0018C24.0777 15.2181 24.2419 15.3899 24.4558 15.4488C25.0555 15.6138 25.6335 15.8535 26.1737 16.1612C26.3664 16.271 26.604 16.2659 26.7917 16.1479L28.452 15.1044C28.5077 15.0693 28.7922 14.9 28.9133 15.0213L30.1508 16.2588C30.2727 16.3807 30.0877 16.6855 30.0671 16.7183L29.0221 18.3773C28.9033 18.5657 28.8985 18.8043 29.0093 18.9975C29.3143 19.529 29.5537 20.1064 29.7207 20.7138C29.7795 20.9275 29.951 21.0915 30.1669 21.1409L32.0795 21.5775C32.1189 21.5864 32.4641 21.6685 32.4641 21.8429V23.5944L32.4642 23.5943ZM19.0734 19.3242V18.9416C19.0734 18.6092 18.804 18.3399 18.4717 18.3399C18.1394 18.3399 17.87 18.6093 17.87 18.9416V19.3242C17.274 19.5637 16.8517 20.1465 16.8517 20.827C16.8517 21.5076 17.274 22.0903 17.87 22.3298V26.4956C17.87 26.828 18.1394 27.0973 18.4717 27.0973C18.804 27.0973 19.0734 26.8279 19.0734 26.4956V22.3298C19.6694 22.0903 20.0918 21.5076 20.0918 20.827C20.0918 20.1465 19.6694 19.5637 19.0734 19.3242ZM18.8882 20.827C18.8882 21.0567 18.7013 21.2436 18.4716 21.2436C18.2419 21.2436 18.0551 21.0567 18.0551 20.827C18.0551 20.5973 18.2419 20.4104 18.4716 20.4104C18.7013 20.4104 18.8882 20.5973 18.8882 20.827ZM23.0539 23.1074V18.9416C23.0539 18.6092 22.7845 18.3399 22.4521 18.3399C22.1198 18.3399 21.8504 18.6093 21.8504 18.9416V23.1074C21.2545 23.3469 20.8321 23.9296 20.8321 24.6102C20.8321 25.2907 21.2545 25.8734 21.8504 26.113V26.4956C21.8504 26.828 22.1198 27.0973 22.4521 27.0973C22.7845 27.0973 23.0539 26.8279 23.0539 26.4956V26.113C23.6498 25.8734 24.0721 25.2907 24.0721 24.6102C24.0721 23.9296 23.6498 23.3468 23.0539 23.1074ZM22.8687 24.6102C22.8687 24.8399 22.6819 25.0267 22.4521 25.0267C22.2224 25.0267 22.0356 24.8399 22.0356 24.6102C22.0356 24.3805 22.2224 24.1935 22.4521 24.1935C22.6819 24.1935 22.8687 24.3805 22.8687 24.6102ZM27.0343 19.3242V18.9416C27.0343 18.6092 26.7649 18.3399 26.4326 18.3399C26.1003 18.3399 25.8309 18.6093 25.8309 18.9416V19.3242C25.235 19.5637 24.8126 20.1465 24.8126 20.827C24.8126 21.5076 25.235 22.0903 25.8309 22.3298V26.4956C25.8309 26.828 26.1003 27.0973 26.4326 27.0973C26.7649 27.0973 27.0343 26.8279 27.0343 26.4956V22.3298C27.6302 22.0903 28.0526 21.5076 28.0526 20.827C28.0526 20.1465 27.6302 19.5637 27.0343 19.3242ZM26.8491 20.827C26.8491 21.0567 26.6623 21.2436 26.4326 21.2436C26.2029 21.2436 26.0161 21.0567 26.0161 20.827C26.0161 20.5973 26.2029 20.4104 26.4326 20.4104C26.6623 20.4104 26.8491 20.5973 26.8491 20.827Z" fill="#1657BB"/>
</g>
<defs>
<clipPath id="clip0_121_178">
<rect width="44" height="44" fill="white"/>
</clipPath>
</defs>
</svg>
