<svg width="45" height="44" viewBox="0 0 45 44" fill="none" xmlns="http://www.w3.org/2000/svg">
<g clip-path="url(#clip0_121_75)">
<path fill-rule="evenodd" clip-rule="evenodd" d="M33.6725 28.5762V28.5785C35.4508 28.5602 36.9069 29.9844 36.9288 31.7626C36.9509 33.5438 35.5255 35.0039 33.7448 35.026C32.8545 35.037 32.0443 34.6865 31.4543 34.1109C30.8716 33.5425 30.4791 32.7075 30.4791 31.835H30.4814C30.4722 30.9475 30.8224 30.14 31.3964 29.5516C31.9649 28.9688 32.7999 28.5763 33.6724 28.5763L33.6725 28.5762ZM33.6725 29.7693C32.5718 29.7693 31.6496 30.7103 31.67 31.8349H31.6722C31.6722 32.9317 32.6048 33.8516 33.7309 33.8376C35.5315 33.8153 36.4242 31.6124 35.1265 30.3465C34.7524 29.9817 34.2346 29.757 33.6725 29.7671V29.7694L33.6725 29.7693ZM35.6789 26.9964C35.5219 26.9318 35.3589 26.8743 35.1907 26.8241C34.9766 26.7708 34.8005 26.6 34.7517 26.3696L34.5238 25.3125L32.8244 25.3336L32.634 26.3368C32.603 26.5611 32.4449 26.7577 32.2139 26.8266C31.9284 26.9118 31.4942 27.0819 31.2433 27.2271C31.0543 27.3446 30.8069 27.3508 30.6071 27.2226L29.6957 26.6346L28.5089 27.8512L29.0943 28.7108C29.2209 28.8895 29.2437 29.1315 29.133 29.3373C28.9793 29.6225 28.8116 30.0074 28.727 30.3166C28.6737 30.5307 28.5029 30.7067 28.2725 30.7555L27.2153 30.9835L27.2364 32.6828L28.2399 32.8733C28.4641 32.9043 28.6608 33.0623 28.7296 33.2934C28.8148 33.579 28.9849 34.0128 29.1301 34.2637C29.2476 34.4527 29.2538 34.7002 29.1256 34.8999L28.5375 35.8116L29.7541 36.9984L30.6136 36.4131C30.7923 36.2866 31.0342 36.2637 31.2401 36.3744C31.5071 36.5182 31.9238 36.7024 32.2083 36.7776C32.4275 36.8277 32.6088 37.0004 32.6584 37.2348L32.8863 38.2919L34.5856 38.2708L34.7761 37.2673C34.8071 37.0431 34.9652 36.8464 35.1963 36.7776C35.4817 36.6924 35.9156 36.5223 36.1665 36.3771C36.3555 36.2596 36.603 36.2534 36.8028 36.3816L37.7145 36.9697L38.9012 35.7531L38.3159 34.8936C38.1893 34.7149 38.1665 34.473 38.2772 34.2671C38.4211 34 38.6052 33.5836 38.6805 33.2989C38.7306 33.0797 38.9033 32.8984 39.1376 32.8487L40.1948 32.6208L40.1736 30.9215L39.1702 30.7311C38.9459 30.7001 38.7493 30.542 38.6805 30.3109C38.5952 30.0255 38.4251 29.5914 38.2799 29.3407C38.1624 29.1517 38.1562 28.9042 38.2844 28.7044L38.8726 27.7927L37.656 26.606L36.7964 27.1913C36.6177 27.3178 36.3758 27.3407 36.1699 27.23C36.0057 27.1414 35.8418 27.0634 35.6789 26.9963L35.6789 26.9964ZM35.8443 25.7865L35.586 24.5888L35.5848 24.5891C35.5275 24.3173 35.2848 24.1148 34.9964 24.1181L32.3545 24.151C32.0637 24.1388 31.8006 24.3416 31.7455 24.636L31.5245 25.8006L30.9638 26.036L29.9313 25.3699L29.9312 25.3702C29.6981 25.2202 29.3841 25.2498 29.1834 25.4562L27.3333 27.3527C27.1249 27.5502 27.0845 27.8753 27.2515 28.12L27.9199 29.1015L27.6894 29.663L26.4916 29.9214L26.4918 29.9225C26.2201 29.9799 26.0175 30.2226 26.0209 30.5109L26.0538 33.1529C26.0417 33.4436 26.2444 33.7068 26.5389 33.7619L27.7035 33.9829L27.9389 34.5434L27.2727 35.576L27.2729 35.5762C27.123 35.8092 27.1525 36.1233 27.3589 36.324L29.2556 38.174C29.453 38.3825 29.7781 38.4228 30.0228 38.2558L31.0043 37.5875L31.5659 37.8177L31.8243 39.0158L31.8254 39.0155C31.8828 39.2873 32.1255 39.4898 32.4138 39.4865L35.0558 39.4536C35.3465 39.4657 35.6097 39.2629 35.6648 38.9685L35.8859 37.8038L36.4464 37.5685L37.479 38.2347L37.4792 38.2344C37.7122 38.3844 38.0263 38.3548 38.227 38.1484L40.077 36.2518C40.2855 36.0543 40.3258 35.7293 40.1588 35.4846L39.4905 34.5031L39.7207 33.9415L40.9188 33.6831L40.9185 33.6819C41.1903 33.6246 41.3928 33.3818 41.3895 33.0935L41.3566 30.4515C41.3687 30.1608 41.1659 29.8977 40.8715 29.8425L39.7068 29.6215L39.4715 29.0609L40.1377 28.0283L40.1374 28.0282C40.2874 27.7951 40.2578 27.4811 40.0514 27.2804L38.1549 25.4303C37.9574 25.2219 37.6323 25.1815 37.3876 25.3485L36.4061 26.0168L35.8445 25.7863L35.8443 25.7865ZM9.39211 34.1663V36.8565C9.39211 37.3893 10.1214 37.9276 11.3006 38.3671C14.2233 39.4566 19.0565 39.4566 21.9793 38.3671C23.1584 37.9276 23.8878 37.3893 23.8878 36.8565V34.1663C20.7323 36.3657 12.5476 36.3657 9.39211 34.1663ZM9.39211 27.7388C9.39211 28.2716 10.1214 28.8099 11.3005 29.2494C14.2233 30.3388 19.0565 30.3388 21.9793 29.2494C23.1584 28.8099 23.8877 28.2716 23.8877 27.7388V25.0485C20.7322 27.2479 12.5475 27.2479 9.39202 25.0485L9.39211 27.7388ZM23.8878 29.6074V32.2976C23.8878 32.8304 23.1584 33.3687 21.9793 33.8083C19.0566 34.8977 14.2233 34.8977 11.3006 33.8083C10.1214 33.3687 9.39211 32.8304 9.39211 32.2976V29.6074C12.5477 31.8068 20.7322 31.8068 23.8878 29.6074ZM10.5964 27.9219C10.294 27.7932 10.1531 27.4438 10.2818 27.1413C10.4105 26.8389 10.76 26.698 11.0624 26.8267L11.3472 26.9487C11.6496 27.0774 11.7905 27.4269 11.6617 27.7293C11.533 28.0318 11.1836 28.1726 10.8811 28.0439L10.5964 27.9219ZM10.5964 32.5183L10.8811 32.6403C11.1835 32.769 11.533 32.6281 11.6617 32.3257C11.7904 32.0232 11.6495 31.6738 11.3471 31.5451L11.0623 31.4231C10.7599 31.2944 10.4104 31.4353 10.2817 31.7377C10.153 32.0401 10.294 32.3896 10.5964 32.5183ZM10.5964 37.1146C10.294 36.9859 10.1531 36.6364 10.2818 36.334C10.4105 36.0315 10.76 35.8907 11.0624 36.0194L11.3472 36.1415C11.6496 36.2702 11.7905 36.6196 11.6617 36.9221C11.533 37.2245 11.1836 37.3654 10.8811 37.2367L10.5964 37.1146ZM24.5742 21.9203H36.2194C39.6685 21.9203 42.4925 19.0964 42.4925 15.6474C42.4925 12.1983 39.6698 9.37426 36.2194 9.37426H34.5468V9.37393C34.2564 9.37426 34.0017 9.16213 33.9573 8.86632C33.5523 6.18636 30.8019 4.52482 28.2403 5.39238C27.7842 5.54693 27.3618 5.77473 26.9872 6.06175L26.9868 6.06126C26.7149 6.26864 26.3225 6.20383 26.1321 5.91959C23.785 2.4167 18.8955 1.76955 15.7256 4.53474C14.4903 5.6123 13.6374 7.11643 13.3965 8.81686C13.3764 9.12808 13.1176 9.37434 12.8013 9.37434H11.7806C8.33152 9.37434 5.5076 12.1984 5.5076 15.6474C5.5076 18.1622 7.01533 20.4034 9.27447 21.3962C10.9646 20.1354 14.1102 19.6595 16.64 19.6595C18.8735 19.6595 20.909 20.0019 22.3941 20.5555C23.3623 20.9164 24.115 21.3811 24.5742 21.9204V21.9203ZM8.43095 22.3134C8.27927 22.5877 8.19904 22.8776 8.19904 23.1799V36.8565C8.19904 37.9385 9.22575 38.8622 10.8857 39.481C14.0898 40.6753 19.19 40.6753 22.3941 39.481C24.054 38.8622 25.0807 37.9385 25.0807 36.8565V23.1799C25.0807 23.1576 25.0802 23.1354 25.0793 23.1133H36.2194C40.327 23.1133 43.6855 19.755 43.6855 15.6474C43.6855 11.5399 40.3259 8.18128 36.2194 8.18128H35.0344C34.1294 4.55582 29.9551 2.84227 26.7679 4.77214C25.2281 2.80323 22.8653 1.62354 20.3187 1.62354C16.4054 1.62354 13.0629 4.39627 12.299 8.18128H11.7805C7.67289 8.18128 4.31445 11.5398 4.31445 15.6474C4.31445 18.4903 5.9422 21.0538 8.43086 22.3135L8.43095 22.3134ZM9.84853 22.4341C10.1792 22.1618 10.677 21.9017 11.3006 21.6693C14.2233 20.5799 19.0566 20.5799 21.9794 21.6693C22.8365 21.9887 23.4557 22.3604 23.7302 22.7442C23.8164 22.8997 23.8878 22.9923 23.8878 23.1799C23.8878 23.7127 23.1585 24.251 21.9794 24.6905C19.0567 25.7799 14.2233 25.7799 11.3006 24.6905C10.1215 24.251 9.39219 23.7127 9.39219 23.1799C9.39219 22.9804 9.49448 22.7801 9.68438 22.5844C9.7473 22.5456 9.80325 22.4949 9.84861 22.434L9.84853 22.4341Z" fill="#1657BB"/>
</g>
<defs>
<clipPath id="clip0_121_75">
<rect width="44" height="44" fill="white" transform="translate(0.75)"/>
</clipPath>
</defs>
</svg>
