<svg width="44" height="44" viewBox="0 0 44 44" fill="none" xmlns="http://www.w3.org/2000/svg">
<g clip-path="url(#clip0_121_183)">
<path d="M21.9993 17.1865C19.6961 17.1865 17.8223 19.058 17.8223 21.3585C17.8223 23.659 19.6961 25.5305 21.9993 25.5305C24.3025 25.5305 26.1763 23.659 26.1763 21.3585C26.1763 19.058 24.3025 17.1865 21.9993 17.1865ZM21.9993 24.2428C20.4068 24.2428 19.1113 22.9487 19.1113 21.3585C19.1113 19.768 20.4068 18.4739 21.9993 18.4739C23.5918 18.4739 24.8873 19.768 24.8873 21.3585C24.8873 22.9487 23.5918 24.2428 21.9993 24.2428Z" fill="#1657BB"/>
<path d="M29.6022 15.6289L27.7354 13.7644C27.5085 13.5378 27.1489 13.5123 26.8925 13.705L25.4862 14.7604C25.0764 14.5439 24.6473 14.3667 24.2042 14.23L23.9572 12.4908C23.9122 12.1732 23.6399 11.9373 23.319 11.9373H20.6791C20.3578 11.9373 20.0859 12.1732 20.0406 12.4908L19.7935 14.23C19.3504 14.3667 18.9218 14.5439 18.5119 14.7604L17.1057 13.705C16.8488 13.5123 16.4897 13.5378 16.2624 13.7644L14.3959 15.6289C14.169 15.8558 14.1435 16.2147 14.3362 16.4708L15.3929 17.8757C15.1764 18.2849 14.9985 18.7132 14.8619 19.1557L13.1203 19.4027C12.8024 19.4477 12.5664 19.7196 12.5664 20.0402V22.6768C12.5664 22.9973 12.8024 23.2693 13.1203 23.3142L14.8619 23.5613C14.9985 24.0038 15.1761 24.4321 15.3929 24.8413L14.3362 26.2462C14.1435 26.5023 14.169 26.8612 14.3959 27.0881L16.2624 28.9525C16.4897 29.1791 16.8488 29.2043 17.1057 29.012L18.5119 27.9565C18.9218 28.1727 19.3504 28.3503 19.7935 28.4869L20.0406 30.2262C20.0859 30.5437 20.3578 30.7794 20.6791 30.7794H23.319C23.6399 30.7794 23.9118 30.5437 23.9572 30.2262L24.2042 28.4869C24.6473 28.3503 25.0764 28.1727 25.4862 27.9565L26.8925 29.012C27.1489 29.2047 27.5085 29.1791 27.7354 28.9525L29.6022 27.0881C29.8291 26.8612 29.8543 26.5023 29.6616 26.2462L28.6048 24.8413C28.8217 24.4321 28.9993 24.0038 29.1359 23.5613L30.8775 23.3142C31.1954 23.2693 31.4317 22.9973 31.4317 22.6768V20.0402C31.4317 19.7196 31.1954 19.4477 30.8775 19.4027L29.1359 19.1557C28.9993 18.7132 28.8217 18.2849 28.6048 17.8757L29.6616 16.4708C29.8543 16.2147 29.8291 15.8558 29.6022 15.6289ZM30.1426 20.5988V22.1178L28.537 22.3458C28.2762 22.3827 28.064 22.5744 28.0013 22.8302C27.8522 23.4398 27.6112 24.0209 27.2852 24.557C27.1483 24.7819 27.1624 25.0672 27.3208 25.2777L28.295 26.5728L27.2194 27.6467L25.923 26.6739C25.7122 26.5157 25.4265 26.5013 25.2012 26.6383C24.6645 26.9636 24.0827 27.2043 23.4721 27.3536C23.2163 27.4161 23.0243 27.6279 22.987 27.8884L22.7594 29.492H21.2384L21.0104 27.8884C20.9735 27.6279 20.7812 27.4161 20.5254 27.3536C19.9147 27.2043 19.3333 26.9636 18.7965 26.6383C18.5713 26.5013 18.2856 26.5157 18.0748 26.6739L16.7784 27.6467L15.7028 26.5725L16.677 25.2777C16.8351 25.0672 16.8492 24.7819 16.7126 24.557C16.3866 24.0209 16.1456 23.4398 15.9962 22.8298C15.9337 22.5744 15.7216 22.3824 15.4608 22.3454L13.8551 22.1178V20.5988L15.4608 20.3712C15.7216 20.3343 15.9337 20.1423 15.9962 19.8868C16.1456 19.2769 16.3866 18.6961 16.7126 18.16C16.8492 17.9348 16.8351 17.6494 16.677 17.4393L15.7028 16.1442L16.7784 15.0699L18.0748 16.0431C18.2856 16.2009 18.5713 16.2153 18.7965 16.0787C19.3333 15.7531 19.9147 15.5124 20.5254 15.3633C20.7812 15.3006 20.9732 15.0891 21.0104 14.8282L21.2384 13.2246H22.7594L22.987 14.8282C23.0243 15.0887 23.2163 15.3006 23.4721 15.3633C24.0827 15.5124 24.6645 15.7531 25.2012 16.0787C25.4265 16.2153 25.7122 16.2009 25.923 16.0431L27.2194 15.0699L28.295 16.1442L27.3208 17.4393C27.1624 17.6494 27.1483 17.9351 27.2852 18.16C27.6112 18.6961 27.8519 19.2769 28.0013 19.8865C28.0637 20.1423 28.2758 20.3343 28.5367 20.3712L30.1426 20.5988Z" fill="#1657BB"/>
<path d="M21.998 5.06293C22.3542 5.06293 22.6426 4.7749 22.6426 4.4194V0.64386C22.6426 0.288025 22.3542 0 21.998 0C21.6422 0 21.3535 0.288025 21.3535 0.64386V4.4194C21.3535 4.7749 21.6422 5.06293 21.998 5.06293Z" fill="#1657BB"/>
<path d="M41.29 19.2686H37.5098C37.1536 19.2686 36.8652 19.5566 36.8652 19.9121C36.8652 20.2679 37.1536 20.5559 37.5098 20.5559H41.29C41.6458 20.5559 41.9345 20.2679 41.9345 19.9121C41.9345 19.5566 41.6458 19.2686 41.29 19.2686Z" fill="#1657BB"/>
<path d="M6.48727 19.2686H2.70703C2.3512 19.2686 2.0625 19.5566 2.0625 19.9121C2.0625 20.2679 2.3512 20.5559 2.70703 20.5559H6.48727C6.84311 20.5559 7.13181 20.2679 7.13181 19.9121C7.13181 19.5566 6.84344 19.2686 6.48727 19.2686Z" fill="#1657BB"/>
<path d="M10.5746 9.41205C10.823 9.66013 11.2379 9.66013 11.486 9.41205C11.7378 9.16061 11.7378 8.75308 11.486 8.50165L8.81321 5.83188C8.56144 5.58078 8.15324 5.58078 7.90147 5.83188C7.65003 6.08331 7.65003 6.49084 7.90147 6.74261L10.5746 9.41205Z" fill="#1657BB"/>
<path d="M7.79147 13.6615L6.48529 13.1502C6.15362 13.0206 5.78 13.1838 5.65008 13.5148C5.52017 13.8457 5.68365 14.2194 6.01498 14.349L7.3215 14.8602C7.6488 14.9881 8.02847 14.8223 8.1567 14.4957C8.28662 14.1643 8.12313 13.791 7.79147 13.6615Z" fill="#1657BB"/>
<path d="M15.7412 5.72178C15.8695 6.04841 16.2491 6.21424 16.5764 6.08634C16.9078 5.95677 17.0713 5.58314 16.9417 5.25215L16.4146 3.90937C16.2851 3.57804 15.9111 3.4149 15.5794 3.54448C15.2481 3.67439 15.0846 4.04768 15.2145 4.37867L15.7412 5.72178Z" fill="#1657BB"/>
<path d="M27.4212 6.08646C27.7485 6.21435 28.1282 6.04852 28.2564 5.72189L28.7835 4.37912C28.9131 4.04779 28.7499 3.6745 28.4182 3.54459C28.0869 3.41534 27.7129 3.57815 27.583 3.90915L27.0563 5.25226C26.9264 5.58325 27.0899 5.95654 27.4212 6.08646Z" fill="#1657BB"/>
<path d="M32.967 9.60071C33.1318 9.60071 33.297 9.53793 33.4228 9.41205L36.0956 6.74261C36.3474 6.49084 36.3474 6.08331 36.0956 5.83188C35.8439 5.58078 35.436 5.58078 35.1842 5.83188L32.5111 8.50165C32.2593 8.75308 32.2593 9.16061 32.5111 9.41205C32.637 9.53793 32.8021 9.60071 32.967 9.60071Z" fill="#1657BB"/>
<path d="M38.3481 13.5148C38.2182 13.1835 37.8442 13.0207 37.5129 13.1502L36.2064 13.6615C35.8751 13.7911 35.7116 14.1644 35.8415 14.4957C35.9697 14.8223 36.3494 14.9882 36.6767 14.8603L37.9832 14.349C38.3145 14.2194 38.478 13.8458 38.3481 13.5148Z" fill="#1657BB"/>
<path d="M22.1167 6.63038C19.4315 6.60755 16.811 7.37226 14.5438 8.84092C14.245 9.03462 14.1601 9.43308 14.3538 9.73151C14.5471 10.0296 14.9466 10.1145 15.245 9.92118C17.2709 8.60929 19.6047 7.91743 22.0022 7.91743C22.0368 7.91743 22.0717 7.91743 22.1063 7.91776C25.4249 7.94563 28.5405 9.25718 30.8793 11.6117C33.2194 13.9673 34.5081 17.0923 34.5081 20.4109C34.5081 24.4695 32.5218 28.29 29.1944 30.6311C28.0967 31.4032 27.379 32.5862 27.1987 33.8796H24.9939C24.6377 33.8796 24.3494 34.168 24.3494 34.5235C24.3494 34.879 24.6377 35.1673 24.9939 35.1673H27.1541V38.4685C27.1541 39.2843 26.4894 39.9479 25.6727 39.9479H18.3257C17.5089 39.9479 16.8443 39.2843 16.8443 38.4685V35.1673H22.4158C22.7719 35.1673 23.0603 34.879 23.0603 34.5235C23.0603 34.168 22.7719 33.8796 22.4158 33.8796H16.7986C16.6207 32.5845 15.9134 31.4079 14.8288 30.6486C11.4859 28.3088 9.49023 24.4819 9.49023 20.4113C9.49023 17.0211 10.8505 13.8391 13.3208 11.4513C13.5766 11.2039 13.5833 10.7963 13.3356 10.5409C13.0882 10.2854 12.6803 10.2787 12.4242 10.5261C9.70105 13.1586 8.20117 16.6693 8.20117 20.4113C8.20117 24.9012 10.4023 29.1225 14.0889 31.703C15.007 32.3455 15.5552 33.3999 15.5552 34.5235V38.4685C15.5552 39.8066 16.5113 40.9258 17.7768 41.1806C18.4771 42.8832 20.124 44.0001 21.9992 44.0001C23.8744 44.0001 25.5213 42.8832 26.2212 41.1806C27.4868 40.9258 28.4428 39.8066 28.4428 38.4685V34.5252C28.4428 34.5245 28.4431 34.5241 28.4431 34.5235C28.4431 33.4033 29.0014 32.3418 29.937 31.6835C33.6061 29.1017 35.7968 24.8877 35.7968 20.4113C35.7968 16.7505 34.3755 13.3036 31.7944 10.705C29.2146 8.1081 25.7777 6.66093 22.1167 6.63038ZM21.9992 42.7127C20.8655 42.7127 19.8481 42.1444 19.2549 41.2353H24.7435C24.1503 42.1444 23.1328 42.7127 21.9992 42.7127Z" fill="#1657BB"/>
</g>
<defs>
<clipPath id="clip0_121_183">
<rect width="44" height="44" fill="white"/>
</clipPath>
</defs>
</svg>
