<svg width="45" height="44" viewBox="0 0 45 44" fill="none" xmlns="http://www.w3.org/2000/svg">
<path d="M31 20.625C31.3781 20.625 31.6875 20.3156 31.6875 19.9375V18.5625C31.6875 18.1844 31.3781 17.875 31 17.875C30.6219 17.875 30.3125 18.1844 30.3125 18.5625V19.9375C30.3125 20.3156 30.6219 20.625 31 20.625Z" fill="#1657BB"/>
<path d="M28.25 20.625C28.6281 20.625 28.9375 20.3156 28.9375 19.9375V18.5625C28.9375 18.1844 28.6281 17.875 28.25 17.875C27.8719 17.875 27.5625 18.1844 27.5625 18.5625V19.9375C27.5625 20.3156 27.8719 20.625 28.25 20.625Z" fill="#1657BB"/>
<path d="M25.5 20.625C25.8781 20.625 26.1875 20.3156 26.1875 19.9375V18.5625C26.1875 18.1844 25.8781 17.875 25.5 17.875C25.1219 17.875 24.8125 18.1844 24.8125 18.5625V19.9375C24.8125 20.3156 25.1219 20.625 25.5 20.625Z" fill="#1657BB"/>
<path d="M15.1875 20.625C15.9469 20.625 16.5625 20.0094 16.5625 19.25C16.5625 18.4906 15.9469 17.875 15.1875 17.875C14.4281 17.875 13.8125 18.4906 13.8125 19.25C13.8125 20.0094 14.4281 20.625 15.1875 20.625Z" fill="#1657BB"/>
<path d="M19.3125 20.625C20.0719 20.625 20.6875 20.0094 20.6875 19.25C20.6875 18.4906 20.0719 17.875 19.3125 17.875C18.5531 17.875 17.9375 18.4906 17.9375 19.25C17.9375 20.0094 18.5531 20.625 19.3125 20.625Z" fill="#1657BB"/>
<path d="M33.75 9.625C33.2619 9.625 32.7806 9.66625 32.2856 9.74187C31.6669 4.99125 27.6244 1.375 22.75 1.375C17.8756 1.375 13.8331 4.99125 13.2144 9.74187C12.7194 9.65938 12.2312 9.625 11.75 9.625C6.4425 9.625 2.125 13.9425 2.125 19.25C2.125 23.1481 4.44875 26.6337 8.05125 28.1325C8.40188 28.2769 8.8075 28.1119 8.95188 27.7613C9.09625 27.4106 8.93125 27.0119 8.58063 26.8606C5.49375 25.575 3.50688 22.5844 3.50688 19.2431C3.50688 14.6919 7.20563 10.9931 11.7569 10.9931C12.3825 10.9931 13.015 11.0688 13.6819 11.2269C13.8812 11.275 14.0875 11.2269 14.2525 11.11C14.4175 10.9862 14.5138 10.8006 14.5275 10.5944C14.7406 6.19438 18.35 2.74312 22.7569 2.74312C27.1637 2.74312 30.7731 6.19438 30.9862 10.5944C30.9931 10.8006 31.0963 10.9862 31.2613 11.11C31.4263 11.2338 31.6325 11.275 31.8319 11.2269C32.4987 11.0688 33.1312 10.9931 33.7569 10.9931C38.3081 10.9931 42.0069 14.6919 42.0069 19.2431C42.0069 22.5844 40.0131 25.575 36.9331 26.8606C36.5825 27.005 36.4175 27.4106 36.5619 27.7613C36.6719 28.0225 36.9263 28.1875 37.1944 28.1875C37.2837 28.1875 37.3731 28.1737 37.4556 28.1325C41.0513 26.6337 43.3819 23.1481 43.3819 19.25C43.3819 13.9425 39.0644 9.625 33.7569 9.625H33.75Z" fill="#1657BB"/>
<path d="M31 31.625C31.3781 31.625 31.6875 31.3156 31.6875 30.9375V29.5625C31.6875 29.1844 31.3781 28.875 31 28.875C30.6219 28.875 30.3125 29.1844 30.3125 29.5625V30.9375C30.3125 31.3156 30.6219 31.625 31 31.625Z" fill="#1657BB"/>
<path d="M28.25 31.625C28.6281 31.625 28.9375 31.3156 28.9375 30.9375V29.5625C28.9375 29.1844 28.6281 28.875 28.25 28.875C27.8719 28.875 27.5625 29.1844 27.5625 29.5625V30.9375C27.5625 31.3156 27.8719 31.625 28.25 31.625Z" fill="#1657BB"/>
<path d="M25.5 31.625C25.8781 31.625 26.1875 31.3156 26.1875 30.9375V29.5625C26.1875 29.1844 25.8781 28.875 25.5 28.875C25.1219 28.875 24.8125 29.1844 24.8125 29.5625V30.9375C24.8125 31.3156 25.1219 31.625 25.5 31.625Z" fill="#1657BB"/>
<path d="M15.1875 31.625C15.9469 31.625 16.5625 31.0094 16.5625 30.25C16.5625 29.4906 15.9469 28.875 15.1875 28.875C14.4281 28.875 13.8125 29.4906 13.8125 30.25C13.8125 31.0094 14.4281 31.625 15.1875 31.625Z" fill="#1657BB"/>
<path d="M19.3125 31.625C20.0719 31.625 20.6875 31.0094 20.6875 30.25C20.6875 29.4906 20.0719 28.875 19.3125 28.875C18.5531 28.875 17.9375 29.4906 17.9375 30.25C17.9375 31.0094 18.5531 31.625 19.3125 31.625Z" fill="#1657BB"/>
<path d="M37.1875 37.125C35.9088 37.125 34.8431 38.005 34.5337 39.1875H26.1875C26.1875 38.4312 25.5688 37.8125 24.8125 37.8125H23.4375V35.0625H33.0625C34.1969 35.0625 35.125 34.1344 35.125 33V27.5C35.125 26.3656 34.1969 25.4375 33.0625 25.4375V24.0625C34.1969 24.0625 35.125 23.1344 35.125 22V16.5C35.125 15.3656 34.1969 14.4375 33.0625 14.4375H12.4375C11.3031 14.4375 10.375 15.3656 10.375 16.5V22C10.375 23.1344 11.3031 24.0625 12.4375 24.0625V25.4375C11.3031 25.4375 10.375 26.3656 10.375 27.5V33C10.375 34.1344 11.3031 35.0625 12.4375 35.0625H22.0625V37.8125H20.6875C19.9312 37.8125 19.3125 38.4312 19.3125 39.1875H10.9662C10.6569 38.005 9.59125 37.125 8.3125 37.125C6.79312 37.125 5.5625 38.3556 5.5625 39.875C5.5625 41.3944 6.79312 42.625 8.3125 42.625C9.59125 42.625 10.6569 41.745 10.9662 40.5625H19.3125C19.3125 41.3188 19.9312 41.9375 20.6875 41.9375H24.8125C25.5688 41.9375 26.1875 41.3188 26.1875 40.5625H34.5337C34.8431 41.745 35.9088 42.625 37.1875 42.625C38.7069 42.625 39.9375 41.3944 39.9375 39.875C39.9375 38.3556 38.7069 37.125 37.1875 37.125ZM11.75 22V16.5C11.75 16.1219 12.0594 15.8125 12.4375 15.8125H33.0625C33.4406 15.8125 33.75 16.1219 33.75 16.5V22C33.75 22.3781 33.4406 22.6875 33.0625 22.6875H12.4375C12.0594 22.6875 11.75 22.3781 11.75 22ZM13.8125 24.0625H31.6875V25.4375H13.8125V24.0625ZM11.75 33V27.5C11.75 27.1219 12.0594 26.8125 12.4375 26.8125H33.0625C33.4406 26.8125 33.75 27.1219 33.75 27.5V33C33.75 33.3781 33.4406 33.6875 33.0625 33.6875H12.4375C12.0594 33.6875 11.75 33.3781 11.75 33ZM8.3125 41.25C7.55625 41.25 6.9375 40.6313 6.9375 39.875C6.9375 39.1187 7.55625 38.5 8.3125 38.5C9.06875 38.5 9.6875 39.1187 9.6875 39.875C9.6875 40.6313 9.06875 41.25 8.3125 41.25ZM20.6875 40.5625V39.1875H24.8125V39.875V40.5625H20.6875ZM37.1875 41.25C36.4312 41.25 35.8125 40.6313 35.8125 39.875C35.8125 39.1187 36.4312 38.5 37.1875 38.5C37.9437 38.5 38.5625 39.1187 38.5625 39.875C38.5625 40.6313 37.9437 41.25 37.1875 41.25Z" fill="#1657BB"/>
</svg>
