<svg width="44" height="44" viewBox="0 0 44 44" fill="none" xmlns="http://www.w3.org/2000/svg">
<path d="M10.0919 31.1162C9.86484 31.2096 9.65852 31.3469 9.48474 31.5203C9.31096 31.6936 9.17316 31.8997 9.07924 32.1264C8.98533 32.3532 8.93716 32.5964 8.9375 32.8418C8.93784 33.0873 8.98669 33.3303 9.08123 33.5568L10.0369 35.8737C10.2284 36.3298 10.5922 36.6918 11.0493 36.8811C11.5063 37.0703 12.0196 37.0715 12.4775 36.8843C12.577 36.8399 12.6882 36.8286 12.7947 36.8521C12.9011 36.8756 12.9972 36.9327 13.0687 37.015C13.5154 37.5537 14.0102 38.0508 14.5469 38.5C14.6251 38.5698 14.6802 38.6618 14.7047 38.7638C14.7293 38.8657 14.7222 38.9728 14.6844 39.0706C14.4972 39.5285 14.4984 40.0417 14.6876 40.4988C14.8769 40.9558 15.2389 41.3197 15.695 41.5112L18.0119 42.4668C18.4696 42.6559 18.9836 42.6556 19.4411 42.4662C19.8987 42.2767 20.2624 41.9135 20.4525 41.4562C20.4937 41.3589 20.5641 41.2768 20.654 41.2214C20.744 41.166 20.8489 41.1399 20.9544 41.1468C21.6405 41.2071 22.3307 41.2071 23.0169 41.1468C23.1246 41.1416 23.2314 41.1698 23.3225 41.2276C23.4136 41.2855 23.4846 41.3701 23.5256 41.47C23.6183 41.6972 23.7554 41.9037 23.9289 42.0772C24.1025 42.2508 24.309 42.3879 24.5362 42.4806C24.7542 42.5717 24.9875 42.6207 25.2237 42.625C25.46 42.6214 25.6934 42.5723 25.9112 42.4806L28.2281 41.525C28.6842 41.3334 29.0462 40.9696 29.2355 40.5125C29.4247 40.0555 29.4259 39.5422 29.2387 39.0843C29.1943 38.9848 29.183 38.8736 29.2065 38.7672C29.23 38.6607 29.2871 38.5646 29.3694 38.4931C29.9385 38.0522 30.4634 37.5572 30.9369 37.015C31.0084 36.9327 31.1045 36.8756 31.2109 36.8521C31.3174 36.8286 31.4286 36.8399 31.5281 36.8843C31.986 37.0715 32.4993 37.0703 32.9563 36.8811C33.4134 36.6918 33.7772 36.3298 33.9687 35.8737L34.9244 33.5568C35.0189 33.3303 35.0677 33.0873 35.0681 32.8418C35.0684 32.5964 35.0203 32.3532 34.9263 32.1264C34.8324 31.8997 34.6946 31.6936 34.5209 31.5203C34.3471 31.3469 34.1407 31.2096 33.9137 31.1162C33.8127 31.0769 33.7269 31.0063 33.6687 30.9148C33.6106 30.8233 33.5832 30.7156 33.5906 30.6075C33.5906 30.2568 33.6387 29.92 33.6387 29.5625H32.2637C32.2637 29.8718 32.2637 30.1743 32.2225 30.4768C32.1859 30.8787 32.2799 31.2817 32.4904 31.6259C32.701 31.9702 33.0168 32.2375 33.3912 32.3881C33.5112 32.4397 33.6064 32.5361 33.6565 32.6568C33.7065 32.7775 33.7076 32.9129 33.6594 33.0343L32.6969 35.3443C32.6467 35.4655 32.5504 35.5619 32.4292 35.6121C32.308 35.6624 32.1719 35.6625 32.0506 35.6125C31.6801 35.4563 31.2694 35.4228 30.8785 35.5168C30.4876 35.6108 30.1371 35.8274 29.8781 36.135C29.4855 36.6089 29.0506 37.0461 28.5787 37.4412C28.2709 37.6984 28.0539 38.0478 27.9598 38.4377C27.8657 38.8277 27.8995 39.2376 28.0562 39.6068C28.1063 39.7281 28.1062 39.8643 28.0559 39.9854C28.0056 40.1066 27.9093 40.2029 27.7881 40.2531L25.4369 41.2087C25.3783 41.2341 25.3151 41.2471 25.2512 41.2471C25.1874 41.2471 25.1242 41.2341 25.0656 41.2087C24.945 41.1572 24.849 41.0612 24.7975 40.9406C24.6463 40.568 24.3799 40.2536 24.0373 40.0434C23.6946 39.8331 23.2937 39.7379 22.8931 39.7718C22.2802 39.8268 21.6635 39.8268 21.0506 39.7718C20.6506 39.7363 20.2498 39.83 19.9071 40.0391C19.5643 40.2483 19.2976 40.5618 19.1462 40.9337C19.0949 41.0519 18.9988 41.1451 18.879 41.1927C18.7592 41.2404 18.6254 41.2387 18.5069 41.1881L16.19 40.2325C16.0709 40.1835 15.9755 40.0901 15.9242 39.972C15.8729 39.8539 15.8695 39.7204 15.915 39.5999C16.0722 39.2296 16.1063 38.8186 16.0122 38.4275C15.9182 38.0363 15.7009 37.6858 15.3925 37.4274C14.9185 37.0349 14.4813 36.5999 14.0862 36.1281C13.829 35.8202 13.4797 35.6032 13.0897 35.5091C12.6998 35.4151 12.2899 35.4489 11.9206 35.6056C11.7993 35.6556 11.6632 35.6555 11.542 35.6053C11.4208 35.555 11.3246 35.4587 11.2744 35.3375L10.3119 33.0275C10.2832 32.9632 10.2681 32.8938 10.2676 32.8235C10.2671 32.7532 10.2812 32.6835 10.309 32.6189C10.3367 32.5543 10.3776 32.4962 10.429 32.4481C10.4804 32.4001 10.5411 32.3633 10.6075 32.34C10.9703 32.19 11.2762 31.9288 11.4813 31.5941C11.6863 31.2593 11.78 30.8682 11.7487 30.4768C11.7487 30.1606 11.7075 29.8375 11.7075 29.5281H10.3325C10.3325 29.8787 10.3325 30.2156 10.3806 30.6006C10.3979 30.7065 10.3788 30.8152 10.3263 30.9088C10.2739 31.0025 10.1912 31.0756 10.0919 31.1162Z" fill="#1657BB"/>
<path d="M22 37.125C24.0057 37.125 25.9293 36.3282 27.3475 34.91C28.7657 33.4918 29.5625 31.5682 29.5625 29.5625H28.1875C28.1875 31.2035 27.5356 32.7773 26.3752 33.9377C25.2148 35.0981 23.641 35.75 22 35.75C20.359 35.75 18.7852 35.0981 17.6248 33.9377C16.4644 32.7773 15.8125 31.2035 15.8125 29.5625H14.4375C14.4375 31.5682 15.2343 33.4918 16.6525 34.91C18.0707 36.3282 19.9943 37.125 22 37.125Z" fill="#1657BB"/>
<path d="M37.125 11C37.125 10.8177 37.0526 10.6428 36.9236 10.5139C36.7947 10.3849 36.6198 10.3125 36.4375 10.3125H30.9375C30.7552 10.3125 30.5803 10.3849 30.4514 10.5139C30.3224 10.6428 30.25 10.8177 30.25 11V26.8125H25.4375V15.8125C25.4375 15.6302 25.3651 15.4553 25.2361 15.3264C25.1072 15.1974 24.9323 15.125 24.75 15.125H19.25C19.0677 15.125 18.8928 15.1974 18.7639 15.3264C18.6349 15.4553 18.5625 15.6302 18.5625 15.8125V26.8125H13.75V20.625C13.75 20.4427 13.6776 20.2678 13.5486 20.1389C13.4197 20.0099 13.2448 19.9375 13.0625 19.9375H7.5625C7.38016 19.9375 7.2053 20.0099 7.07636 20.1389C6.94743 20.2678 6.875 20.4427 6.875 20.625V26.8125H1.375V28.1875H42.625V26.8125H37.125V11ZM12.375 26.8125H8.25V21.3125H12.375V26.8125ZM24.0625 26.8125H19.9375V16.5H24.0625V26.8125ZM35.75 26.8125H31.625V11.6875H35.75V26.8125Z" fill="#1657BB"/>
<path d="M4.95703 17.545L36.9395 4.7025L35.7502 6.82688L36.9464 7.51438L39.112 3.67812C39.1626 3.58889 39.1925 3.48948 39.1996 3.38717C39.2068 3.28487 39.1909 3.18226 39.1533 3.08687C39.1153 2.99047 39.0559 2.90392 38.9797 2.83368C38.9035 2.76343 38.8125 2.71133 38.7133 2.68125L34.4852 1.375L34.0864 2.75L36.4377 3.4375L4.44141 16.2731L4.95703 17.545Z" fill="#1657BB"/>
</svg>
