<svg width="43" height="42" viewBox="0 0 43 42" fill="none" xmlns="http://www.w3.org/2000/svg">
<path d="M32.4062 8.57666C32.0685 8.57666 31.7237 8.59845 31.3751 8.64203C29.9145 4.71222 25.8373 2.01416 21.25 2.01416C16.663 2.01416 12.5854 4.71222 11.1249 8.64203C10.7766 8.59845 10.4315 8.57666 10.0938 8.57666C5.38945 8.57666 1.5625 12.4036 1.5625 17.1079C1.5625 21.8122 5.38945 25.6392 10.0938 25.6392H11.2992C11.6616 25.6392 11.9555 25.3453 11.9555 24.9829C11.9555 24.6205 11.6616 24.3267 11.2992 24.3267H10.0938C6.11331 24.3267 2.875 21.0883 2.875 17.1079C2.875 13.1275 6.11331 9.88916 10.0938 9.88916C10.5321 9.88916 10.9878 9.93338 11.4482 10.0205C11.776 10.0869 12.1019 9.88692 12.1987 9.5652C13.3061 5.89206 17.028 3.32666 21.25 3.32666C25.472 3.32666 29.1942 5.89206 30.3016 9.5652C30.3984 9.8866 30.7188 10.084 31.0521 10.0205C31.5122 9.93338 31.9679 9.88916 32.4062 9.88916C36.3867 9.88916 39.625 13.1275 39.625 17.1079C39.625 21.0883 36.3867 24.3267 32.4062 24.3267H31.0482C30.6855 24.3267 30.392 24.6205 30.392 24.9829C30.392 25.3453 30.6855 25.6392 31.0482 25.6392H32.4062C37.1102 25.6392 40.9375 21.8122 40.9375 17.1079C40.9375 12.4036 37.1102 8.57666 32.4062 8.57666Z" fill="#1657BB"/>
<path d="M16.0456 30.4668H14.7331V17.7642C14.7331 15.955 13.261 14.4829 11.4519 14.4829H8.52148C8.15907 14.4829 7.86523 14.7767 7.86523 15.1392C7.86523 15.5016 8.15907 15.7954 8.52148 15.7954H11.4519C12.5375 15.7954 13.4206 16.6785 13.4206 17.7642V30.4668H12.1081C11.7457 30.4668 11.4519 30.7607 11.4519 31.1231V35.0606C11.4519 35.423 11.7457 35.7168 12.1081 35.7168H16.0456C16.408 35.7168 16.7019 35.423 16.7019 35.0606V31.1231C16.7019 30.7607 16.408 30.4668 16.0456 30.4668ZM15.3894 34.4043H12.7644V31.7793H15.3894V34.4043Z" fill="#1657BB"/>
<path d="M30.3926 30.4668H29.0801V17.7642C29.0801 16.6785 29.9632 15.7954 31.0488 15.7954H33.9795C34.3423 15.7954 34.6358 15.5016 34.6358 15.1392C34.6358 14.7767 34.3423 14.4829 33.9795 14.4829H31.0488C29.2397 14.4829 27.7676 15.955 27.7676 17.7642V30.4668H26.4551C26.0923 30.4668 25.7988 30.7607 25.7988 31.1231V35.0606C25.7988 35.423 26.0923 35.7168 26.4551 35.7168H30.3926C30.7553 35.7168 31.0488 35.423 31.0488 35.0606V31.1231C31.0488 30.7607 30.7553 30.4668 30.3926 30.4668ZM29.7363 34.4043H27.1113V31.7793H29.7363V34.4043Z" fill="#1657BB"/>
<path d="M23.2188 34.7357H21.9062V15.1392C21.9062 14.7767 21.6124 14.4829 21.25 14.4829C20.8876 14.4829 20.5938 14.7767 20.5938 15.1392V34.7357H19.2812C18.9188 34.7357 18.625 35.0295 18.625 35.3919V39.3294C18.625 39.6918 18.9188 39.9857 19.2812 39.9857H23.2188C23.5815 39.9857 23.875 39.6918 23.875 39.3294V35.3919C23.875 35.0295 23.5815 34.7357 23.2188 34.7357ZM22.5625 38.6732H19.9375V36.0482H22.5625V38.6732Z" fill="#1657BB"/>
</svg>
