<svg width="45" height="44" viewBox="0 0 45 44" fill="none" xmlns="http://www.w3.org/2000/svg">
<g clip-path="url(#clip0_121_102)">
<path d="M39.5368 11.0082C39.0018 11.0077 38.4699 11.0896 37.9598 11.2509C38.0082 10.8664 38.0327 10.4792 38.0331 10.0918C37.9379 4.42385 33.266 -0.0937401 27.598 0.00147796C23.462 0.0709441 19.7719 2.61645 18.238 6.45825C15.2717 4.61887 11.3759 5.53256 9.53662 8.49889C8.93782 9.46454 8.61047 10.5738 8.58902 11.7098C7.79044 11.2488 6.88426 11.0066 5.96214 11.0082C3.12778 11.0082 0.830078 13.3059 0.830078 16.1403C0.830078 18.9746 3.12778 21.2723 5.96214 21.2723C6.36702 21.2723 6.69529 20.944 6.69529 20.5392C6.69529 20.1343 6.36702 19.806 5.96214 19.806C3.93782 19.7731 2.32351 18.1055 2.35641 16.0811C2.38931 14.0568 4.05695 12.4425 6.08128 12.4754C7.31352 12.4955 8.45321 13.1333 9.11469 14.1731C9.33647 14.5119 9.79084 14.6068 10.1296 14.3851C10.4225 14.1935 10.539 13.8217 10.408 13.4971C10.1771 12.9403 10.0566 12.344 10.0531 11.7413C10.0825 9.08431 12.257 6.95258 14.9139 6.97577C16.0978 6.98044 17.2398 7.41382 18.1288 8.19573C18.434 8.46186 18.8971 8.43016 19.1632 8.12498C19.2353 8.04232 19.2879 7.94444 19.3172 7.83869C20.6587 3.17071 25.5303 0.474086 30.1982 1.81557C33.9045 2.88066 36.4845 6.23611 36.5617 10.0917C36.5586 10.8602 36.4513 11.6248 36.2428 12.3644C36.1344 12.7546 36.3626 13.1587 36.7528 13.2671C36.9638 13.3258 37.1901 13.287 37.3696 13.1614C38.0038 12.7141 38.7609 12.4742 39.5368 12.4744C41.5613 12.4744 43.2026 14.1157 43.2026 16.1402C43.2026 18.1647 41.5613 19.8059 39.5368 19.8059C39.1319 19.8059 38.8037 20.1342 38.8037 20.5391C38.8037 20.944 39.1319 21.2722 39.5368 21.2722C42.3712 21.2722 44.6689 18.9745 44.6689 16.1402C44.6689 13.3059 42.3712 11.0082 39.5368 11.0082Z" fill="#1657BB"/>
<path d="M35.2125 27.8706H10.2854C9.07065 27.8706 8.08594 28.8553 8.08594 30.0701V33.0027C8.08594 34.2174 9.07065 35.2021 10.2854 35.2021H35.2125C36.4273 35.2021 37.412 34.2174 37.412 33.0027V30.0701C37.412 28.8553 36.4273 27.8706 35.2125 27.8706ZM35.9457 33.0027C35.9457 33.4075 35.6174 33.7358 35.2125 33.7358H10.2854C9.88051 33.7358 9.55224 33.4075 9.55224 33.0027V30.0701C9.55224 29.6652 9.88051 29.3369 10.2854 29.3369H35.2125C35.6174 29.3369 35.9457 29.6652 35.9457 30.0701V33.0027Z" fill="#1657BB"/>
<path d="M33.1777 30.1155C32.3964 30.1204 31.7656 30.755 31.7656 31.5363C31.7693 32.3229 32.4086 32.9583 33.1953 32.9571C33.98 32.9523 34.6122 32.3122 34.6073 31.5275C34.6025 30.7428 33.9624 30.1106 33.1777 30.1155ZM33.1953 31.5825C33.1733 31.5825 33.1586 31.5583 33.1586 31.5364L33.1953 31.4909V31.5825Z" fill="#1657BB"/>
<path d="M25.5341 30.8032H11.6042C11.1994 30.8032 10.8711 31.1315 10.8711 31.5364C10.8711 31.9413 11.1994 32.2695 11.6042 32.2695H25.5341C25.939 32.2695 26.2673 31.9413 26.2673 31.5364C26.2673 31.1315 25.9391 30.8032 25.5341 30.8032Z" fill="#1657BB"/>
<path d="M30.0622 30.8032H28.1121C27.7072 30.8032 27.3789 31.1315 27.3789 31.5364C27.3789 31.9413 27.7072 32.2695 28.1121 32.2695H30.0622C30.4671 32.2695 30.7954 31.9413 30.7954 31.5364C30.7954 31.1315 30.4672 30.8032 30.0622 30.8032Z" fill="#1657BB"/>
<path d="M35.2125 36.6685H10.2854C9.07065 36.6685 8.08594 37.6532 8.08594 38.8679V41.8005C8.08594 43.0153 9.07065 44 10.2854 44H35.2125C36.4273 44 37.412 43.0153 37.412 41.8005V38.8679C37.412 37.6532 36.4273 36.6685 35.2125 36.6685ZM35.9457 41.8005C35.9457 42.2054 35.6174 42.5337 35.2125 42.5337H10.2854C9.88051 42.5337 9.55224 42.2054 9.55224 41.8005V38.8679C9.55224 38.463 9.88051 38.1348 10.2854 38.1348H35.2125C35.6174 38.1348 35.9457 38.463 35.9457 38.8679V41.8005Z" fill="#1657BB"/>
<path d="M33.1777 38.9134C32.3964 38.9182 31.7656 39.5529 31.7656 40.3341C31.7693 41.1208 32.4086 41.7562 33.1953 41.755C33.98 41.7501 34.6122 41.1101 34.6073 40.3253C34.6025 39.5407 33.9624 38.9085 33.1777 38.9134ZM33.1953 40.3804C33.1733 40.3804 33.1586 40.3562 33.1586 40.3342L33.1953 40.2887V40.3804Z" fill="#1657BB"/>
<path d="M25.5341 39.6011H11.6042C11.1994 39.6011 10.8711 39.9293 10.8711 40.3342C10.8711 40.7391 11.1994 41.0674 11.6042 41.0674H25.5341C25.939 41.0674 26.2673 40.7391 26.2673 40.3342C26.2673 39.9293 25.9391 39.6011 25.5341 39.6011Z" fill="#1657BB"/>
<path d="M30.0622 39.6011H28.1121C27.7072 39.6011 27.3789 39.9293 27.3789 40.3342C27.3789 40.7391 27.7072 41.0674 28.1121 41.0674H30.0622C30.4671 41.0674 30.7954 40.7391 30.7954 40.3342C30.7954 39.9293 30.4672 39.6011 30.0622 39.6011Z" fill="#1657BB"/>
<path d="M35.2125 19.0728H10.2854C9.07065 19.0728 8.08594 20.0575 8.08594 21.2722V24.2048C8.08594 25.4196 9.07065 26.4043 10.2854 26.4043H35.2125C36.4273 26.4043 37.412 25.4196 37.412 24.2048V21.2722C37.412 20.0575 36.4273 19.0728 35.2125 19.0728ZM35.9457 24.2048C35.9457 24.6097 35.6174 24.938 35.2125 24.938H10.2854C9.88051 24.938 9.55224 24.6097 9.55224 24.2048V21.2722C9.55224 20.8673 9.88051 20.5391 10.2854 20.5391H35.2125C35.6174 20.5391 35.9457 20.8673 35.9457 21.2722V24.2048Z" fill="#1657BB"/>
<path d="M34.3773 22.5385C34.2359 21.7597 33.49 21.2428 32.7112 21.3841C32.3421 21.451 32.014 21.66 31.7973 21.966C31.5796 22.2731 31.4946 22.6548 31.5612 23.0254C31.6846 23.7078 32.2783 24.2044 32.9718 24.205C33.0519 24.2049 33.1318 24.1983 33.2108 24.1852C33.5873 24.1231 33.9228 23.9116 34.1412 23.5987C34.3596 23.2915 34.4447 22.9092 34.3773 22.5385ZM32.9344 22.7966L32.9674 22.7387L32.9711 22.8303C32.9381 22.8303 32.9359 22.812 32.9344 22.7966Z" fill="#1657BB"/>
<path d="M25.3876 22.0054H11.4578C11.0529 22.0054 10.7246 22.3336 10.7246 22.7385C10.7246 23.1434 11.0529 23.4717 11.4578 23.4717H25.3876C25.7925 23.4717 26.1208 23.1434 26.1208 22.7385C26.1208 22.3336 25.7926 22.0054 25.3876 22.0054Z" fill="#1657BB"/>
<path d="M29.5935 22.0054H27.6433C27.2384 22.0054 26.9102 22.3336 26.9102 22.7385C26.9102 23.1434 27.2384 23.4717 27.6433 23.4717H29.5935C29.9984 23.4717 30.3266 23.1434 30.3266 22.7385C30.3266 22.3336 29.9985 22.0054 29.5935 22.0054Z" fill="#1657BB"/>
<path d="M19.6003 11.9561L17.4009 9.75665C17.1146 9.47044 16.6505 9.47044 16.3642 9.75665L14.1648 11.9561C13.8835 12.2473 13.8916 12.7115 14.1828 12.9928C14.4669 13.2672 14.9173 13.2672 15.2014 12.9928L16.1494 12.0448V16.8733C16.1494 17.2782 16.4777 17.6065 16.8825 17.6065C17.2874 17.6065 17.6157 17.2782 17.6157 16.8733V12.0448L18.5637 12.9928C18.8549 13.274 19.3191 13.266 19.6003 12.9747C19.8747 12.6906 19.8747 12.2402 19.6003 11.9561Z" fill="#1657BB"/>
<path d="M31.3129 14.1557C31.0288 13.8813 30.5783 13.8813 30.2941 14.1557L29.3462 15.1037V10.2751C29.3462 9.87026 29.0179 9.54199 28.613 9.54199C28.2082 9.54199 27.8799 9.87026 27.8799 10.2751V15.1037L26.9319 14.1557C26.6407 13.8744 26.1766 13.8824 25.8952 14.1737C25.6209 14.4578 25.6209 14.9082 25.8952 15.1924L28.0947 17.3918C28.381 17.678 28.8451 17.678 29.1314 17.3918L31.3308 15.1924C31.6122 14.9011 31.6041 14.437 31.3129 14.1557Z" fill="#1657BB"/>
</g>
<defs>
<clipPath id="clip0_121_102">
<rect width="44" height="44" fill="white" transform="translate(0.75)"/>
</clipPath>
</defs>
</svg>
