<svg width="44" height="44" viewBox="0 0 44 44" fill="none" xmlns="http://www.w3.org/2000/svg">
<path d="M29.9062 17.0398L22.3438 12.6707C22.2392 12.6104 22.1207 12.5786 22 12.5786C21.8793 12.5786 21.7608 12.6104 21.6562 12.6707L14.0938 17.0432C13.9893 17.1035 13.9026 17.1902 13.8423 17.2946C13.7819 17.3989 13.7501 17.5173 13.75 17.6379V26.3657C13.7501 26.4863 13.7819 26.6047 13.8423 26.7091C13.9026 26.8134 13.9893 26.9001 14.0938 26.9604L21.6562 31.3295C21.7614 31.3878 21.8797 31.4186 22 31.4188C22.1207 31.4186 22.2393 31.3866 22.3438 31.326L29.9062 26.957C30.0107 26.8967 30.0974 26.81 30.1577 26.7056C30.2181 26.6013 30.2499 26.4828 30.25 26.3623V17.6345C30.2499 17.5139 30.2181 17.3955 30.1577 17.2911C30.0974 17.1867 30.0107 17.1001 29.9062 17.0398ZM22 14.0629L28.215 17.6482L22 21.206L15.8125 17.6379L22 14.0629ZM15.125 18.8273L21.3125 22.3988V29.542L15.125 25.9704V18.8273ZM22.6875 29.542V22.3988L28.875 18.8548V25.967L22.6875 29.542Z" fill="#1657BB"/>
<path d="M20.282 6.13254L21.3132 5.10129V10.3125C21.3132 10.4949 21.3856 10.6697 21.5146 10.7987C21.6435 10.9276 21.8184 11 22.0007 11C22.183 11 22.3579 10.9276 22.4868 10.7987C22.6158 10.6697 22.6882 10.4949 22.6882 10.3125V5.09785L23.7195 6.1291C23.7834 6.19344 23.8595 6.24448 23.9432 6.27929C24.027 6.3141 24.1169 6.33198 24.2076 6.33191C24.3441 6.33271 24.4778 6.29282 24.5916 6.21733C24.7054 6.14184 24.7942 6.03417 24.8465 5.90806C24.8989 5.78194 24.9125 5.64308 24.8856 5.50919C24.8588 5.37531 24.7927 5.25245 24.6957 5.15629L22.4854 2.95285C22.3566 2.8248 22.1823 2.75293 22.0007 2.75293C21.8191 2.75293 21.6448 2.8248 21.516 2.95285L19.3057 5.15629C19.1762 5.28575 19.1035 5.46133 19.1035 5.64441C19.1035 5.73507 19.1214 5.82483 19.1561 5.90858C19.1908 5.99234 19.2416 6.06844 19.3057 6.13254C19.3698 6.19664 19.4459 6.24749 19.5297 6.28218C19.6134 6.31687 19.7032 6.33473 19.7938 6.33473C19.9769 6.33473 20.1525 6.262 20.282 6.13254Z" fill="#1657BB"/>
<path d="M23.7182 37.8675L22.687 38.8988V33.6875C22.687 33.5052 22.6146 33.3303 22.4856 33.2014C22.3567 33.0724 22.1818 33 21.9995 33C21.8172 33 21.6423 33.0724 21.5134 33.2014C21.3844 33.3303 21.312 33.5052 21.312 33.6875V38.9022L20.2807 37.8709C20.2169 37.8068 20.141 37.7559 20.0574 37.7212C19.9739 37.6864 19.8843 37.6684 19.7938 37.6682C19.7033 37.6681 19.6137 37.6858 19.53 37.7202C19.4464 37.7547 19.3703 37.8053 19.3062 37.8692C19.2421 37.9331 19.1912 38.009 19.1564 38.0925C19.1217 38.1761 19.1037 38.2656 19.1035 38.3561C19.1034 38.4466 19.121 38.5363 19.1555 38.6199C19.19 38.7036 19.2406 38.7796 19.3045 38.8438L21.5148 41.0506C21.6436 41.1787 21.8179 41.2505 21.9995 41.2505C22.1811 41.2505 22.3554 41.1787 22.4842 41.0506L24.6945 38.8438C24.7586 38.7796 24.8094 38.7035 24.8441 38.6198C24.8788 38.536 24.8967 38.4463 24.8967 38.3556C24.8967 38.265 24.8788 38.1752 24.8441 38.0915C24.8094 38.0077 24.7586 37.9316 24.6945 37.8675C24.6304 37.8034 24.5543 37.7525 24.4705 37.7179C24.3868 37.6832 24.297 37.6653 24.2064 37.6653C24.1157 37.6653 24.0259 37.6832 23.9422 37.7179C23.8584 37.7525 23.7823 37.8034 23.7182 37.8675Z" fill="#1657BB"/>
<path d="M12.2228 15.5615L7.70592 12.9524L9.11874 12.5743C9.21217 12.5579 9.3012 12.5223 9.3802 12.4697C9.45921 12.4172 9.52649 12.3489 9.57781 12.2691C9.62913 12.1893 9.66338 12.0998 9.67841 12.0061C9.69343 11.9124 9.6889 11.8166 9.66511 11.7248C9.64132 11.633 9.59877 11.547 9.54015 11.4724C9.48154 11.3978 9.40811 11.3362 9.3245 11.2913C9.24089 11.2465 9.14891 11.2195 9.05434 11.2119C8.95977 11.2043 8.86465 11.2164 8.77499 11.2474L5.75686 12.0552C5.66749 12.0771 5.58342 12.1166 5.50961 12.1715C5.4358 12.2264 5.37376 12.2956 5.32717 12.3749C5.23789 12.5338 5.21326 12.7209 5.25842 12.8974L6.06967 15.9156C6.10897 16.0615 6.19525 16.1904 6.31517 16.2824C6.4351 16.3743 6.58198 16.4242 6.73311 16.4243C6.79352 16.4246 6.85367 16.4165 6.91186 16.4002C7.08776 16.3527 7.2376 16.2374 7.32848 16.0795C7.41936 15.9215 7.44384 15.734 7.39655 15.5581L7.01842 14.1453L11.5353 16.7509C11.6397 16.8115 11.7583 16.8435 11.879 16.8437C12.0302 16.8434 12.177 16.7934 12.2968 16.7013C12.4166 16.6092 12.5027 16.4802 12.5419 16.3342C12.581 16.1883 12.571 16.0335 12.5133 15.8938C12.4556 15.7541 12.3535 15.6373 12.2228 15.5615Z" fill="#1657BB"/>
<path d="M37.9288 28.0843C37.8723 27.9209 37.7564 27.7847 37.604 27.703C37.4516 27.6213 37.274 27.6 37.1066 27.6434C36.9393 27.6867 36.7944 27.7916 36.7008 27.937C36.6073 28.0824 36.572 28.2577 36.602 28.428L36.9801 29.8408L32.4632 27.249C32.3061 27.1668 32.1233 27.1485 31.953 27.1979C31.7827 27.2473 31.6381 27.3606 31.5493 27.5141C31.4606 27.6676 31.4346 27.8495 31.4768 28.0217C31.519 28.1939 31.6261 28.3432 31.7757 28.4383L36.2926 31.0474L34.8798 31.4255C34.7194 31.4691 34.5803 31.5693 34.4881 31.7075C34.3959 31.8457 34.3568 32.0127 34.3782 32.1775C34.3996 32.3422 34.4799 32.4937 34.6044 32.6038C34.7288 32.714 34.8889 32.7753 35.0551 32.7765C35.1155 32.7769 35.1757 32.7688 35.2338 32.7524L38.252 31.9446C38.3395 31.9215 38.4215 31.8814 38.4935 31.8266C38.5655 31.7717 38.6259 31.7032 38.6713 31.6249C38.7606 31.4661 38.7852 31.2789 38.7401 31.1024L37.9288 28.0843Z" fill="#1657BB"/>
<path d="M11.5353 27.249L7.01842 29.8546L7.39655 28.4418C7.42754 28.3521 7.43964 28.257 7.43209 28.1624C7.42453 28.0679 7.39748 27.9759 7.35264 27.8923C7.3078 27.8087 7.24615 27.7352 7.17155 27.6766C7.09695 27.618 7.01103 27.5755 6.91919 27.5517C6.82734 27.5279 6.73157 27.5233 6.6379 27.5384C6.54422 27.5534 6.45467 27.5876 6.37487 27.639C6.29508 27.6903 6.22677 27.7576 6.17425 27.8366C6.12172 27.9156 6.08612 28.0046 6.06967 28.098L5.25842 31.1024C5.21326 31.2789 5.23789 31.4661 5.32717 31.6249C5.3726 31.7032 5.43303 31.7717 5.50499 31.8266C5.57696 31.8814 5.65905 31.9215 5.74655 31.9446L8.76467 32.7524C8.82282 32.7688 8.883 32.7769 8.94342 32.7765C9.10958 32.7753 9.26969 32.714 9.39413 32.6038C9.51856 32.4937 9.5989 32.3422 9.62029 32.1775C9.64167 32.0127 9.60265 31.8457 9.51045 31.7075C9.41824 31.5693 9.27909 31.4691 9.11874 31.4255L7.70592 31.0474L12.2228 28.4383C12.3724 28.3432 12.4795 28.1939 12.5217 28.0217C12.5639 27.8495 12.5379 27.6676 12.4492 27.5141C12.3604 27.3606 12.2158 27.2473 12.0455 27.1979C11.8752 27.1485 11.6924 27.1668 11.5353 27.249Z" fill="#1657BB"/>
<path d="M32.1233 16.8437C32.2441 16.8435 32.3626 16.8115 32.4671 16.7509L36.9839 14.1453L36.6058 15.5581C36.5585 15.734 36.583 15.9215 36.6739 16.0795C36.7648 16.2374 36.9146 16.3527 37.0905 16.4002C37.1487 16.4165 37.2088 16.4246 37.2693 16.4243C37.4204 16.4242 37.5673 16.3743 37.6872 16.2824C37.8071 16.1904 37.8934 16.0615 37.9327 15.9156L38.7439 12.8974C38.7891 12.7209 38.7645 12.5338 38.6752 12.3749C38.6298 12.2967 38.5693 12.2281 38.4974 12.1733C38.4254 12.1184 38.3433 12.0783 38.2558 12.0552L35.2377 11.2474C35.148 11.2164 35.0529 11.2043 34.9583 11.2119C34.8638 11.2195 34.7718 11.2465 34.6882 11.2913C34.6046 11.3362 34.5311 11.3978 34.4725 11.4724C34.4139 11.547 34.3714 11.633 34.3476 11.7248C34.3238 11.8166 34.3192 11.9124 34.3343 12.0061C34.3493 12.0998 34.3835 12.1893 34.4349 12.2691C34.4862 12.3489 34.5535 12.4172 34.6325 12.4697C34.7115 12.5223 34.8005 12.5579 34.8939 12.5743L36.3068 12.9524L31.7761 15.5615C31.6454 15.6373 31.5433 15.7541 31.4856 15.8938C31.428 16.0335 31.4179 16.1883 31.457 16.3342C31.4962 16.4802 31.5823 16.6092 31.7021 16.7013C31.8219 16.7934 31.9688 16.8434 32.1199 16.8437H32.1233Z" fill="#1657BB"/>
</svg>
