<svg width="44" height="44" viewBox="0 0 44 44" fill="none" xmlns="http://www.w3.org/2000/svg">
<path d="M21.9997 41.25C17.7611 41.2512 13.6406 39.8535 10.2775 37.2736C6.91446 34.6938 4.4969 31.0761 3.39997 26.9819C2.30303 22.8877 2.58803 18.5459 4.21076 14.6302C5.8335 10.7146 8.70322 7.44394 12.3747 5.32585C12.5851 5.20621 12.8343 5.17466 13.0679 5.23808C13.3015 5.3015 13.5005 5.45475 13.6216 5.66438C13.7426 5.87401 13.7758 6.123 13.7139 6.35703C13.6521 6.59105 13.5001 6.7911 13.2913 6.91352C9.96937 8.8298 7.37279 11.7889 5.90448 15.3318C4.43618 18.8746 4.17826 22.803 5.17075 26.5074C6.16323 30.2118 8.35063 33.485 11.3935 35.8192C14.4364 38.1533 18.1646 39.4179 21.9997 39.4167C22.2428 39.4167 22.4759 39.5133 22.6478 39.6852C22.8197 39.8571 22.9163 40.0902 22.9163 40.3333C22.9163 40.5765 22.8197 40.8096 22.6478 40.9815C22.4759 41.1534 22.2428 41.25 21.9997 41.25Z" fill="#1657BB"/>
<path d="M31.1673 38.797C30.9655 38.797 30.7694 38.7304 30.6093 38.6076C30.4492 38.4847 30.3342 38.3125 30.2819 38.1176C30.2297 37.9227 30.2432 37.716 30.3205 37.5296C30.3977 37.3431 30.5342 37.1874 30.709 37.0865C34.0309 35.1702 36.6275 32.2111 38.0958 28.6683C39.5641 25.1254 39.822 21.197 38.8296 17.4927C37.8371 13.7883 35.6497 10.515 32.6068 8.18086C29.5639 5.84669 25.8357 4.5821 22.0007 4.58333C21.7575 4.58333 21.5244 4.48676 21.3525 4.31485C21.1806 4.14294 21.084 3.90978 21.084 3.66667C21.084 3.42355 21.1806 3.19039 21.3525 3.01849C21.5244 2.84658 21.7575 2.75 22.0007 2.75C26.2393 2.74879 30.3598 4.14655 33.7228 6.7264C37.0858 9.30625 39.5034 12.9239 40.6003 17.0181C41.6973 21.1123 41.4123 25.4541 39.7895 29.3698C38.1668 33.2855 35.2971 36.5561 31.6257 38.6742C31.4863 38.7546 31.3282 38.797 31.1673 38.797Z" fill="#1657BB"/>
<path d="M31.1673 38.797C30.9655 38.797 30.7694 38.7304 30.6093 38.6076C30.4492 38.4847 30.3342 38.3125 30.2819 38.1176C30.2297 37.9227 30.2432 37.716 30.3205 37.5296C30.3977 37.3431 30.5342 37.1874 30.709 37.0865C34.0309 35.1702 36.6275 32.2111 38.0958 28.6683C39.5641 25.1254 39.822 21.197 38.8296 17.4927C37.8371 13.7883 35.6497 10.515 32.6068 8.18086C29.5639 5.84669 25.8357 4.5821 22.0007 4.58333C21.7575 4.58333 21.5244 4.48676 21.3525 4.31485C21.1806 4.14294 21.084 3.90978 21.084 3.66667C21.084 3.42355 21.1806 3.19039 21.3525 3.01849C21.5244 2.84658 21.7575 2.75 22.0007 2.75C26.2393 2.74879 30.3598 4.14655 33.7228 6.7264C37.0858 9.30625 39.5034 12.9239 40.6003 17.0181C41.6973 21.1123 41.4123 25.4541 39.7895 29.3698C38.1668 33.2855 35.2971 36.5561 31.6257 38.6742C31.4863 38.7546 31.3282 38.797 31.1673 38.797Z" fill="#1657BB"/>
<path d="M21.9997 41.25C17.7611 41.2512 13.6406 39.8535 10.2775 37.2736C6.91446 34.6938 4.4969 31.0761 3.39997 26.9819C2.30303 22.8877 2.58803 18.5459 4.21076 14.6302C5.8335 10.7146 8.70322 7.44394 12.3747 5.32585C12.5851 5.20621 12.8343 5.17466 13.0679 5.23808C13.3015 5.3015 13.5005 5.45475 13.6216 5.66438C13.7426 5.87401 13.7758 6.123 13.7139 6.35703C13.6521 6.59105 13.5001 6.7911 13.2913 6.91352C9.96937 8.8298 7.37279 11.7889 5.90448 15.3318C4.43618 18.8746 4.17826 22.803 5.17075 26.5074C6.16323 30.2118 8.35063 33.485 11.3935 35.8192C14.4364 38.1533 18.1646 39.4179 21.9997 39.4167C22.2428 39.4167 22.4759 39.5133 22.6478 39.6852C22.8197 39.8571 22.9163 40.0902 22.9163 40.3333C22.9163 40.5765 22.8197 40.8096 22.6478 40.9815C22.4759 41.1534 22.2428 41.25 21.9997 41.25Z" fill="#1657BB"/>
<path d="M12.8331 11.9167C12.5899 11.9167 12.3568 11.8201 12.1849 11.6482C12.013 11.4763 11.9164 11.2432 11.9164 11V6.94196L7.22947 6.41121C6.98781 6.38374 6.76697 6.2614 6.61552 6.07109C6.46407 5.88079 6.39442 5.63812 6.42189 5.39646C6.44936 5.15481 6.5717 4.93396 6.76201 4.78251C6.95231 4.63106 7.19498 4.56141 7.43664 4.58888L12.9366 5.21313C13.1603 5.23856 13.3667 5.34539 13.5167 5.51326C13.6666 5.68113 13.7496 5.89829 13.7497 6.12338V11C13.7497 11.2432 13.6531 11.4763 13.4812 11.6482C13.3093 11.8201 13.0762 11.9167 12.8331 11.9167Z" fill="#1657BB"/>
<path d="M36.6667 39.4166C36.6318 39.4166 36.5969 39.4147 36.5622 39.4111L31.0622 38.7868C30.8387 38.7612 30.6324 38.6543 30.4827 38.4864C30.3329 38.3186 30.2501 38.1015 30.25 37.8766V32.9999C30.25 32.7568 30.3466 32.5236 30.5185 32.3517C30.6904 32.1798 30.9236 32.0833 31.1667 32.0833C31.4098 32.0833 31.6429 32.1798 31.8148 32.3517C31.9868 32.5236 32.0833 32.7568 32.0833 32.9999V37.058L36.7702 37.5888C37.0036 37.6144 37.2181 37.7286 37.3698 37.9078C37.5214 38.0869 37.5985 38.3174 37.5852 38.5518C37.572 38.7861 37.4693 39.0065 37.2984 39.1673C37.1275 39.3282 36.9014 39.4174 36.6667 39.4166Z" fill="#1657BB"/>
<path d="M22.0007 33.9166C19.6438 33.9166 17.3398 33.2177 15.3801 31.9083C13.4204 30.5989 11.893 28.7377 10.9911 26.5602C10.0891 24.3827 9.85316 21.9867 10.313 19.6751C10.7728 17.3635 11.9077 15.2401 13.5743 13.5736C15.2409 11.907 17.3642 10.772 19.6758 10.3122C21.9874 9.85243 24.3835 10.0884 26.561 10.9904C28.7385 11.8923 30.5996 13.4197 31.909 15.3794C33.2184 17.3391 33.9173 19.643 33.9173 21.9999C33.9137 25.1593 32.657 28.1882 30.423 30.4223C28.189 32.6563 25.16 33.913 22.0007 33.9166ZM22.0007 11.9166C20.0064 11.9166 18.0569 12.508 16.3987 13.6159C14.7405 14.7239 13.4481 16.2987 12.6849 18.1412C11.9217 19.9837 11.722 22.0111 12.1111 23.9671C12.5001 25.9231 13.4605 27.7197 14.8707 29.1299C16.2808 30.5401 18.0775 31.5004 20.0335 31.8895C21.9895 32.2786 24.0169 32.0789 25.8594 31.3157C27.7019 30.5525 29.2767 29.2601 30.3846 27.6019C31.4926 25.9437 32.084 23.9942 32.084 21.9999C32.0808 19.3266 31.0175 16.7637 29.1272 14.8734C27.2369 12.9831 24.674 11.9197 22.0007 11.9166Z" fill="#1657BB"/>
<path d="M25.6673 26.5833C25.4242 26.5833 25.1911 26.4867 25.0192 26.3148L21.3526 22.6481C21.1806 22.4762 21.084 22.2431 21.084 22V17.4167C21.084 17.1736 21.1806 16.9404 21.3525 16.7685C21.5244 16.5966 21.7575 16.5 22.0007 16.5C22.2438 16.5 22.4769 16.5966 22.6488 16.7685C22.8207 16.9404 22.9173 17.1736 22.9173 17.4167V21.6205L26.3154 25.0186C26.4436 25.1468 26.5308 25.3101 26.5662 25.4879C26.6015 25.6657 26.5834 25.85 26.514 26.0174C26.4447 26.1849 26.3272 26.3281 26.1765 26.4288C26.0258 26.5295 25.8486 26.5833 25.6673 26.5833Z" fill="#1657BB"/>
</svg>
